# xmcd CD database file
#
# Track frame offsets:
#	150
#	20003
#	59075
#	94474
#	132551
#	175507
#	222837
#	261576
#	298101
#
# Disc length: 4158 seconds
#
# Revision: 0
# Processed by: cddbd v1.5.2PL0 Copyright (c) Steve Scherf et al.
# Submitted via: CDex 1.70beta2
#
DISCID=95103c09
DTITLE=橋爪亮督 - As We Breathe
DYEAR=2008
DGENRE=Jazz
TTITLE0=Last Song
TTITLE1=Sakura-Ame
TTITLE2=Sign
TTITLE3=Fraise
TTITLE4=Encore
TTITLE5=Keep in Mind
TTITLE6=Structure
TTITLE7=Friends
TTITLE8=Epilogue
EXTD=YEAR: 2008
EXTT0=
EXTT1=
EXTT2=
EXTT3=
EXTT4=
EXTT5=
EXTT6=
EXTT7=
EXTT8=
PLAYORDER=
